<svg xmlns="http://www.w3.org/2000/svg" version="1.1" xmlns:xlink="http://www.w3.org/1999/xlink" xmlns:svgjs="http://svgjs.dev/svgjs" width="1440" height="560" preserveAspectRatio="none" viewBox="0 0 1440 560"><g mask="url(&quot;#SvgjsMask1004&quot;)" fill="none"><rect width="1440" height="560" x="0" y="0" fill="rgba(29, 28, 29, 1)"></rect><path d="M246.6 607.38C402.59 606.12 530.11 457.6 850.71 451.23 1171.31 444.86 1289.06 183.16 1454.82 176.83" stroke="rgba(255, 255, 255, 0.58)" stroke-width="2"></path><path d="M287.43 568.9C455.71 564.98 581.93 338.15 917.3 330.94 1252.67 323.73 1380.07 110.24 1547.17 106.94" stroke="rgba(255, 255, 255, 0.58)" stroke-width="2"></path><path d="M576 594.94C730.8 574.4 823.19 217.62 1073.64 217.43 1324.1 217.24 1430.77 472.69 1571.29 480.63" stroke="rgba(255, 255, 255, 0.58)" stroke-width="2"></path><path d="M329.6 644.03C473.52 612.59 525.42 241.16 753.71 234.96 981.99 228.76 965.76 304.96 1177.81 304.96 1389.87 304.96 1494.46 235.19 1601.92 234.96" stroke="rgba(255, 255, 255, 0.58)" stroke-width="2"></path><path d="M623.79 636.54C765.53 572.27 699.96 125.17 974.03 121.86 1248.1 118.55 1492.28 321.47 1674.5 323.46" stroke="rgba(255, 255, 255, 0.58)" stroke-width="2"></path></g><defs><mask id="SvgjsMask1004"><rect width="1440" height="560" fill="#ffffff"></rect></mask></defs></svg>